<?xml version="1.0" encoding="UTF-8" standalone="no"?>
<!-- Created with Inkscape (http://www.inkscape.org/) -->

<svg
   xmlns:dc="http://purl.org/dc/elements/1.1/"
   xmlns:cc="http://creativecommons.org/ns#"
   xmlns:rdf="http://www.w3.org/1999/02/22-rdf-syntax-ns#"
   xmlns:svg="http://www.w3.org/2000/svg"
   xmlns="http://www.w3.org/2000/svg"
   xmlns:xlink="http://www.w3.org/1999/xlink"
   xmlns:sodipodi="http://sodipodi.sourceforge.net/DTD/sodipodi-0.dtd"
   xmlns:inkscape="http://www.inkscape.org/namespaces/inkscape"
   width="100mm"
   height="100mm"
   viewBox="0 0 100 100"
   version="1.1"
   id="svg8"
   inkscape:version="0.92.3 (2405546, 2018-03-11)"
   sodipodi:docname="weather-clouds-broken.svg">
  <defs
     id="defs2">
    <linearGradient
       inkscape:collect="always"
       id="linearGradient4554-7">
      <stop
         style="stop-color:#ffdd55;stop-opacity:1;"
         offset="0"
         id="stop4550" />
      <stop
         style="stop-color:#ffdd55;stop-opacity:0;"
         offset="1"
         id="stop4552" />
    </linearGradient>
    <radialGradient
       inkscape:collect="always"
       xlink:href="#linearGradient4554-7"
       id="radialGradient4556"
       cx="49.845768"
       cy="246.88695"
       fx="49.845768"
       fy="246.88695"
       r="34.477772"
       gradientUnits="userSpaceOnUse"
       gradientTransform="matrix(1.1627907,0,0,1.1627907,-8.1144267,-49.545328)" />
  </defs>
  <sodipodi:namedview
     id="base"
     pagecolor="#ffffff"
     bordercolor="#666666"
     borderopacity="1.0"
     inkscape:pageopacity="0.0"
     inkscape:pageshadow="2"
     inkscape:zoom="1.979899"
     inkscape:cx="109.39881"
     inkscape:cy="185.06401"
     inkscape:document-units="mm"
     inkscape:current-layer="layer1"
     showgrid="false"
     inkscape:snap-object-midpoints="false"
     inkscape:snap-page="true"
     inkscape:object-paths="true"
     inkscape:snap-intersection-paths="false"
     inkscape:snap-grids="false"
     inkscape:window-width="1853"
     inkscape:window-height="1145"
     inkscape:window-x="67"
     inkscape:window-y="27"
     inkscape:window-maximized="1" />
  <metadata
     id="metadata5">
    <rdf:RDF>
      <cc:Work
         rdf:about="">
        <dc:format>image/svg+xml</dc:format>
        <dc:type
           rdf:resource="http://purl.org/dc/dcmitype/StillImage" />
        <dc:title />
      </cc:Work>
    </rdf:RDF>
  </metadata>
  <g
     inkscape:label="Ebene 1"
     inkscape:groupmode="layer"
     id="layer1"
     transform="translate(0,-197)">
    <circle
       id="path3713-6"
       cx="49.845768"
       cy="237.53252"
       r="40.090431"
       style="fill:url(#radialGradient4556);fill-opacity:1;stroke-width:0.33776593" />
    <circle
       id="path3713"
       cx="49.845768"
       cy="237.53252"
       r="21.138847"
       style="fill:#ffdd55;stroke:#ffffff;stroke-width:4.4000001;stroke-miterlimit:4;stroke-dasharray:none" />
    <path
       style="fill:#4d4d4d;stroke:#ffffff;stroke-width:1.49128056;stroke-miterlimit:4;stroke-dasharray:none"
       d="m 38.038356,239.23622 a 19.995682,19.930894 0 0 0 -13.353189,5.12475 16.467033,16.413677 0 0 0 -3.675745,-0.43512 16.467033,16.413677 0 0 0 -16.4666946,16.41399 16.467033,16.413677 0 0 0 0.9606651,5.47098 h 13.7056235 17.304887 20.35121 a 19.995682,19.930894 0 0 0 1.168922,-6.64352 19.995682,19.930894 0 0 0 -19.995679,-19.93108 z"
       id="path4563-56"
       inkscape:connector-curvature="0" />
    <path
       style="fill:#4d4d4d;stroke:#ffffff;stroke-width:1.79999971;stroke-miterlimit:4;stroke-dasharray:none"
       d="m 69.739927,244.67826 a 24.095982,24.095982 0 0 0 -16.091005,6.19549 19.84375,19.84375 0 0 0 -4.429705,-0.52555 19.84375,19.84375 0 0 0 -19.84375,19.84375 19.84375,19.84375 0 0 0 1.157552,6.61458 H 47.04984 67.90283 92.427432 a 24.095982,24.095982 0 0 0 1.4087,-8.03207 24.095982,24.095982 0 0 0 -24.096205,-24.0962 z"
       id="path4563"
       inkscape:connector-curvature="0" />
  </g>
</svg>
